<svg id="Layer_1" data-name="Layer 1" xmlns="http://www.w3.org/2000/svg" width="200" height="200" viewBox="0 0 200 200"><defs><style>.cls-1{fill:gray;}</style></defs><title>logo</title><path class="cls-1" d="M156,99.35,153.11,111l-9.89,39.84L134,113.56l-3.54-14.21H113.76l3.45,14.21,8.33,34.3,6.42,26.4h25.79l5.45-21.73,8.45-33.6,4.91-19.57Zm-86.73,0-4.89,19.73-7.86,31.73L43.72,99.35H23.13l18.76,74.91H67.68l5.2-21.19,10.2-41.58,3-12.14Z"/><polygon class="cls-1" points="99.98 42.68 113.76 99.35 86.06 99.35 99.98 42.68"/><polygon class="cls-1" points="259.91 -2 259.91 99.35 176.55 99.35 195.81 22.66 175 22.66 161.37 77.62 155.99 99.35 130.43 99.35 125.56 79.82 111.35 22.66 88.29 22.66 74.66 77.62 69.26 99.35 43.72 99.35 24.64 22.66 3.92 22.66 23.13 99.35 -59.91 99.35 -59.91 -2 259.91 -2"/></svg>