<svg id="Layer_1" data-name="Layer 1" xmlns="http://www.w3.org/2000/svg" width="940" height="350" viewBox="0 0 940 350"><defs><style>.cls-1{fill:#d7dde0;}.cls-2{fill:#e6e6e6;}.cls-3,.cls-7{font-size:126.32px;font-family:MyriadPro-Regular, Myriad Pro;}.cls-3{fill:#ccc;}.cls-4{letter-spacing:-0.01em;}.cls-5{letter-spacing:0em;}.cls-6{letter-spacing:-0.01em;}.cls-7{opacity:0.79;fill:#29abe2;}</style></defs><title>principalplaceholder</title><rect class="cls-1" width="940" height="350"/><polygon class="cls-2" points="87.51 350 0 350 0 291.81 37.45 0 42.59 0 80.9 298.53 80.9 298.54 83.7 320.33 87.51 350"/><polygon class="cls-2" points="171.31 350 80.74 350 80.9 348.35 80.9 348.34 83.7 320.33 115.72 0 136.32 0 170.09 337.85 171.31 350"/><polygon class="cls-2" points="263.51 350 168.53 350 170.09 337.85 173.14 314.12 173.14 314.11 213.45 0 218.59 0 256.9 298.53 256.9 298.54 258.64 312.04 258.64 312.06 263.51 350"/><polygon class="cls-2" points="344.79 350 255.25 350 258.64 312.06 258.64 312.04 286.45 0 313.59 0 336.28 254.56 344.79 350"/><polygon class="cls-2" points="456.1 295.63 464.74 350 331.2 350 337 313.52 337 313.5 346.37 254.56 386.85 0 409.09 0 456.1 295.63"/><polygon class="cls-2" points="524.05 350 455.71 350 479.42 0 500.34 0 524.05 350"/><polygon class="cls-2" points="607.54 350 605.36 326.17 605.36 326.15 575.41 0 560.35 0 528.22 350 602.3 350 607.54 350"/><polygon class="cls-2" points="703.56 350 607.54 350 602.3 350 605.36 326.17 605.36 326.15 608.9 298.53 647.22 0 660.82 0 701.14 314.11 701.14 314.12 704.47 340.08 704.47 340.09 705.74 350 703.56 350"/><polygon class="cls-2" points="705.74 350 778.3 350 784.2 350 781.74 323.17 781.74 323.16 752.13 0 735.63 0 704.47 340.08 704.47 340.09 703.56 350 705.74 350"/><polygon class="cls-2" points="881.74 350 877.14 314.12 877.14 314.11 836.82 0 823.22 0 784.9 298.53 781.74 323.16 781.74 323.17 778.3 350 784.2 350 881.74 350"/><polygon class="cls-2" points="940 61.24 940 350 885.1 350 887.14 333.16 887.14 333.15 927.45 0 932.59 0 940 61.24"/><text class="cls-3" transform="translate(75.61 200.84)">de<tspan class="cls-4" x="134.53" y="0">v</tspan><tspan x="194.03" y="0">de</tspan><tspan class="cls-4" x="328.56" y="0">v</tspan><tspan class="cls-5" x="388.06" y="0">de</tspan><tspan class="cls-6" x="522.59" y="0">v</tspan><tspan x="582.09" y="0">dev</tspan></text><text class="cls-7" transform="translate(89.61 206.84)">de<tspan class="cls-4" x="134.53" y="0">v</tspan><tspan x="194.03" y="0">de</tspan><tspan class="cls-4" x="328.56" y="0">v</tspan><tspan class="cls-5" x="388.06" y="0">de</tspan><tspan class="cls-6" x="522.59" y="0">v</tspan><tspan x="582.09" y="0">dev</tspan></text></svg>